<svg width="126" height="57" viewBox="0 0 126 57" fill="none" xmlns="http://www.w3.org/2000/svg">
<path d="M24.7706 0.736794C14.616 1.9229 5.1013 9.84443 1.94397 19.7569C0.706636 23.6118 0.407969 30.4319 1.30397 34.5833C3.4373 44.5805 11.8853 53.3917 21.8266 56.018C25.2826 56.9076 32.9626 56.8653 36.3333 55.9757C37.7413 55.5944 40.0026 54.7896 41.3253 54.1965L43.8 53.0951V49.1555C43.8 46.9528 43.7146 45.1736 43.5866 45.1736C43.4586 45.1736 42.1786 45.7667 40.7706 46.4868C37.4853 48.0965 32.408 49.4097 29.336 49.4097C19.3946 49.3673 10.3066 42.3778 8.34397 33.2701C7.61864 30.0083 8.0453 23.866 9.1973 20.943C11.16 15.9021 15.9386 11.1576 21.1013 9.08193C23.1493 8.27707 24.344 8.10763 28.6533 8.10763C34.072 8.10763 36.8453 8.74305 41.7093 11.0729L43.8 12.0472V7.89582V3.7868L39.8746 2.4736C34.5413 0.736794 29.6346 0.143738 24.7706 0.736794Z" fill="#61A6B4"/>
<path d="M94.0613 0.736801C92.2693 0.906246 88.984 1.66875 86.7226 2.43125L82.6266 3.7868V7.89583V12.0049L85.272 10.7764C93.1226 7.04861 102.424 6.96389 108.355 10.5646C110.787 12.0472 114.797 16.1139 116.035 18.4438C118.339 22.6375 119.149 29.2882 117.869 33.9479C115.907 41.3611 109.635 47.1646 101.869 48.8167C100.333 49.1132 98.072 49.4097 96.8773 49.4097C93.976 49.4097 88.856 48.0542 85.656 46.4868C84.248 45.7667 82.968 45.1736 82.84 45.1736C82.712 45.1736 82.6693 47.0375 82.712 49.2826L82.84 53.434L86.552 54.7896C95.5973 58.1361 105.325 57.2042 112.707 52.3326C129.005 41.4882 130.243 18.9097 115.181 6.54028C109.507 1.88055 102.296 -0.11042 94.0613 0.736801Z" fill="#61A6B4"/>
<path d="M44.2266 28.441V52.7986H47.64H51.0533L51.1386 41.0646L51.2666 29.2882L63.3413 29.1611L75.3733 29.0764V40.9375V52.7986H78.7866H82.2V28.441V4.08333H78.7866H75.3733V13.4028V22.7222H63.2133H51.0533V13.4028V4.08333H47.64H44.2266V28.441Z" fill="#61A6B4"/>
</svg>
